<mxfile host="65bd71144e">
    <diagram id="D0G6I4OloFqcga8UPM_V" name="Page-1">
        <mxGraphModel dx="1271" dy="608" grid="1" gridSize="10" guides="1" tooltips="1" connect="1" arrows="1" fold="1" page="1" pageScale="1" pageWidth="827" pageHeight="1169" math="0" shadow="0">
            <root>
                <mxCell id="0"/>
                <mxCell id="1" parent="0"/>
                <mxCell id="3" value="SignUp" style="edgeStyle=none;html=1;entryX=0;entryY=0.5;entryDx=0;entryDy=0;" parent="1" source="2" target="11" edge="1">
                    <mxGeometry relative="1" as="geometry">
                        <mxPoint x="350" y="210" as="targetPoint"/>
                    </mxGeometry>
                </mxCell>
                <mxCell id="2" value="User" style="whiteSpace=wrap;html=1;fillColor=#76608a;fontColor=#ffffff;strokeColor=#432D57;" parent="1" vertex="1">
                    <mxGeometry x="50" y="120" width="120" height="60" as="geometry"/>
                </mxCell>
                <mxCell id="6" value="On Success&lt;br&gt;response (code)" style="edgeStyle=none;html=1;entryX=0.5;entryY=0;entryDx=0;entryDy=0;" parent="1" source="4" target="9" edge="1">
                    <mxGeometry relative="1" as="geometry">
                        <mxPoint x="400" y="400" as="targetPoint"/>
                    </mxGeometry>
                </mxCell>
                <mxCell id="19" style="edgeStyle=none;curved=1;html=1;entryX=1;entryY=0.5;entryDx=0;entryDy=0;fontSize=11;fontColor=#FFFFFF;" edge="1" parent="1" source="4" target="11">
                    <mxGeometry relative="1" as="geometry">
                        <Array as="points">
                            <mxPoint x="620" y="220"/>
                        </Array>
                    </mxGeometry>
                </mxCell>
                <mxCell id="20" value="On Fail&lt;br&gt;(Redirect to home)" style="edgeLabel;html=1;align=center;verticalAlign=middle;resizable=0;points=[];fontSize=11;fontColor=#FFFFFF;" vertex="1" connectable="0" parent="19">
                    <mxGeometry x="0.3487" y="26" relative="1" as="geometry">
                        <mxPoint as="offset"/>
                    </mxGeometry>
                </mxCell>
                <mxCell id="4" value="&lt;font color=&quot;#ffffff&quot; style=&quot;font-size: 11px&quot;&gt;Authenticate Notion&lt;br&gt;&lt;/font&gt;&lt;div style=&quot;font-family: &amp;#34;sourcecodepro+powerline+awesome regular&amp;#34; , &amp;#34;menlo&amp;#34; , &amp;#34;monaco&amp;#34; , &amp;#34;courier new&amp;#34; , monospace , &amp;#34;menlo&amp;#34; , &amp;#34;monaco&amp;#34; , &amp;#34;courier new&amp;#34; , monospace ; line-height: 21px ; font-size: 11px&quot;&gt;&lt;font color=&quot;#ffffff&quot; style=&quot;font-size: 11px&quot;&gt;https://api.notion.com/v1/oauth/authorize?&lt;/font&gt;&lt;/div&gt;" style="whiteSpace=wrap;html=1;fillColor=#6d8764;strokeColor=#3A5431;fontColor=#ffffff;" parent="1" vertex="1">
                    <mxGeometry x="247.5" y="280" width="305" height="70" as="geometry"/>
                </mxCell>
                <mxCell id="15" value="On Success" style="edgeStyle=none;html=1;fontSize=11;fontColor=#FFFFFF;" parent="1" source="9" target="14" edge="1">
                    <mxGeometry relative="1" as="geometry"/>
                </mxCell>
                <mxCell id="9" value="&lt;font style=&quot;font-size: 11px&quot; color=&quot;#ffffff&quot;&gt;Notion API (swap code for auth token)&lt;br&gt;&lt;/font&gt;&lt;div style=&quot;font-family: &amp;#34;sourcecodepro+powerline+awesome regular&amp;#34; , &amp;#34;menlo&amp;#34; , &amp;#34;monaco&amp;#34; , &amp;#34;courier new&amp;#34; , monospace , &amp;#34;menlo&amp;#34; , &amp;#34;monaco&amp;#34; , &amp;#34;courier new&amp;#34; , monospace ; line-height: 21px ; font-size: 11px&quot;&gt;&lt;font style=&quot;font-size: 11px&quot; color=&quot;#ffffff&quot;&gt;https://api.notion.com/v1/oauth/token&lt;/font&gt;&lt;/div&gt;" style="whiteSpace=wrap;html=1;fillColor=#647687;strokeColor=#314354;fontColor=#ffffff;" parent="1" vertex="1">
                    <mxGeometry x="265" y="460" width="270" height="70" as="geometry"/>
                </mxCell>
                <mxCell id="13" value="href" style="edgeStyle=none;html=1;entryX=0.5;entryY=0;entryDx=0;entryDy=0;fontSize=11;fontColor=#FFFFFF;" parent="1" source="11" target="4" edge="1">
                    <mxGeometry relative="1" as="geometry"/>
                </mxCell>
                <mxCell id="11" value="Client&lt;br&gt;(/index.html)" style="whiteSpace=wrap;html=1;fillColor=#647687;fontColor=#ffffff;strokeColor=#314354;" parent="1" vertex="1">
                    <mxGeometry x="340" y="120" width="120" height="60" as="geometry"/>
                </mxCell>
                <mxCell id="22" value="" style="edgeStyle=none;curved=1;html=1;fontSize=11;fontColor=#FFFFFF;" edge="1" parent="1" source="14" target="21">
                    <mxGeometry relative="1" as="geometry"/>
                </mxCell>
                <mxCell id="14" value="Profile&lt;br&gt;(profile.html)" style="whiteSpace=wrap;html=1;fillColor=#647687;fontColor=#ffffff;strokeColor=#314354;" parent="1" vertex="1">
                    <mxGeometry x="340" y="680" width="120" height="60" as="geometry"/>
                </mxCell>
                <mxCell id="21" value="Authenticate Twitter" style="ellipse;whiteSpace=wrap;html=1;fillColor=#1ba1e2;strokeColor=#006EAF;fontColor=#ffffff;" vertex="1" parent="1">
                    <mxGeometry x="340" y="820" width="120" height="100" as="geometry"/>
                </mxCell>
            </root>
        </mxGraphModel>
    </diagram>
</mxfile>